# Blender v2.79 (sub 0) OBJ File: ''
# www.blender.org
o Cube
v 2.209069 0.651745 -1.000000
v 2.209069 0.651745 1.000000
v -2.209069 0.651745 1.000000
v -2.209068 0.651745 -1.000000
v 2.209070 2.651745 -1.000000
v 2.209067 2.651745 1.000001
v -2.209069 2.651745 1.000000
v -2.209069 2.651745 -1.000000
v 0.272869 2.031669 1.344996
v 0.272869 4.728433 1.344996
v 0.272869 2.031669 -1.351767
v 0.272869 4.728433 -1.351767
v 2.969632 2.031669 1.344996
v 2.969632 4.728433 1.344996
v 2.969632 2.031669 -1.351767
v 2.969632 4.728433 -1.351767
v 1.552718 0.021901 1.180924
v 1.552718 1.333475 1.180924
v 1.552718 0.021901 0.340931
v 1.552718 1.333475 0.340931
v 2.392711 0.021901 1.180924
v 2.392711 1.333475 1.180924
v 2.392711 0.021901 0.340931
v 2.392711 1.333475 0.340931
v 1.552718 0.021901 -0.415029
v 1.552718 1.333475 -0.415029
v 1.552718 0.021901 -1.255022
v 1.552718 1.333475 -1.255022
v 2.392711 0.021901 -0.415029
v 2.392711 1.333475 -0.415029
v 2.392711 0.021901 -1.255022
v 2.392711 1.333475 -1.255022
v -2.491219 0.021901 -0.415029
v -2.491219 1.333475 -0.415029
v -2.491219 0.021901 -1.255022
v -2.491219 1.333475 -1.255022
v -1.651226 0.021901 -0.415029
v -1.651226 1.333475 -0.415029
v -1.651226 0.021901 -1.255022
v -1.651226 1.333475 -1.255022
v -2.491219 0.021901 1.294986
v -2.491219 1.333475 1.294986
v -2.491219 0.021901 0.454992
v -2.491219 1.333475 0.454992
v -1.651226 0.021901 1.294986
v -1.651226 1.333475 1.294986
v -1.651226 0.021901 0.454992
v -1.651226 1.333475 0.454992
vt 0.000000 0.000000
vt 0.000000 0.000000
vt 0.000000 0.000000
vt 0.000000 0.000000
vt 0.000000 0.000000
vt 0.000000 0.000000
vt 0.000000 0.000000
vt 0.000000 0.000000
vt 1.000000 0.000000
vt 0.000000 1.000000
vt 0.000000 0.000000
vt 1.000000 0.000000
vt 0.000000 1.000000
vt 0.000000 0.000000
vt 1.000000 0.000000
vt 0.000000 1.000000
vt 0.000000 0.000000
vt 1.000000 0.000000
vt 0.000000 1.000000
vt 0.000000 0.000000
vt 1.000000 0.000000
vt 0.000000 1.000000
vt 0.000000 0.000000
vt 1.000000 0.000000
vt 0.000000 1.000000
vt 0.000000 0.000000
vt 1.000000 0.000000
vt 0.000000 1.000000
vt 0.000000 0.000000
vt 1.000000 0.000000
vt 0.000000 1.000000
vt 0.000000 0.000000
vt 1.000000 0.000000
vt 0.000000 1.000000
vt 0.000000 0.000000
vt 1.000000 0.000000
vt 0.000000 1.000000
vt 0.000000 0.000000
vt 1.000000 0.000000
vt 0.000000 1.000000
vt 0.000000 0.000000
vt 1.000000 0.000000
vt 0.000000 1.000000
vt 0.000000 0.000000
vt 1.000000 0.000000
vt 0.000000 1.000000
vt 0.000000 0.000000
vt 1.000000 0.000000
vt 0.000000 1.000000
vt 0.000000 0.000000
vt 1.000000 0.000000
vt 0.000000 1.000000
vt 0.000000 0.000000
vt 1.000000 0.000000
vt 0.000000 1.000000
vt 0.000000 0.000000
vt 1.000000 0.000000
vt 0.000000 1.000000
vt 0.000000 0.000000
vt 1.000000 0.000000
vt 0.000000 1.000000
vt 0.000000 0.000000
vt 1.000000 0.000000
vt 0.000000 1.000000
vt 0.000000 0.000000
vt 1.000000 0.000000
vt 0.000000 1.000000
vt 0.000000 0.000000
vt 1.000000 0.000000
vt 0.000000 1.000000
vt 0.000000 0.000000
vt 1.000000 0.000000
vt 0.000000 1.000000
vt 0.000000 0.000000
vt 1.000000 0.000000
vt 0.000000 1.000000
vt 0.000000 0.000000
vt 1.000000 0.000000
vt 0.000000 1.000000
vt 0.000000 0.000000
vt 1.000000 0.000000
vt 0.000000 1.000000
vt 0.000000 0.000000
vt 1.000000 1.000000
vt 1.000000 1.000000
vt 1.000000 1.000000
vt 1.000000 1.000000
vt 1.000000 1.000000
vt 1.000000 1.000000
vt 1.000000 1.000000
vt 1.000000 1.000000
vt 1.000000 1.000000
vt 1.000000 1.000000
vt 1.000000 1.000000
vt 1.000000 1.000000
vt 1.000000 1.000000
vt 1.000000 1.000000
vt 1.000000 1.000000
vt 1.000000 1.000000
vt 1.000000 1.000000
vt 1.000000 1.000000
vt 1.000000 1.000000
vt 1.000000 1.000000
vt 1.000000 1.000000
vt 1.000000 1.000000
vt 1.000000 1.000000
vt 1.000000 1.000000
vt 1.000000 1.000000
vn 0.0000 -1.0000 0.0000
vn 0.0000 1.0000 0.0000
vn 1.0000 -0.0000 0.0000
vn 0.0000 -0.0000 1.0000
vn -1.0000 -0.0000 -0.0000
vn 0.0000 0.0000 -1.0000
s off
f 2/1/1 4/2/1 1/3/1
f 8/4/2 6/5/2 5/6/2
f 5/6/3 2/1/3 1/3/3
f 6/5/4 3/7/4 2/1/4
f 7/8/5 4/2/5 3/7/5
f 1/3/6 8/4/6 5/6/6
f 10/9/5 11/10/5 9/11/5
f 12/12/6 15/13/6 11/14/6
f 16/15/3 13/16/3 15/17/3
f 14/18/4 9/19/4 13/20/4
f 15/21/1 9/19/1 11/14/1
f 12/12/2 14/22/2 16/23/2
f 18/24/5 19/25/5 17/26/5
f 20/27/6 23/28/6 19/29/6
f 24/30/3 21/31/3 23/32/3
f 22/33/4 17/34/4 21/35/4
f 23/36/1 17/34/1 19/29/1
f 20/27/2 22/37/2 24/38/2
f 26/39/5 27/40/5 25/41/5
f 28/42/6 31/43/6 27/44/6
f 32/45/3 29/46/3 31/47/3
f 30/48/4 25/49/4 29/50/4
f 31/51/1 25/49/1 27/44/1
f 28/42/2 30/52/2 32/53/2
f 34/54/5 35/55/5 33/56/5
f 36/57/6 39/58/6 35/59/6
f 40/60/3 37/61/3 39/62/3
f 38/63/4 33/64/4 37/65/4
f 39/66/1 33/64/1 35/59/1
f 36/57/2 38/67/2 40/68/2
f 42/69/5 43/70/5 41/71/5
f 44/72/6 47/73/6 43/74/6
f 48/75/3 45/76/3 47/77/3
f 46/78/4 41/79/4 45/80/4
f 47/81/1 41/79/1 43/74/1
f 44/72/2 46/82/2 48/83/2
f 2/1/1 3/7/1 4/2/1
f 8/4/2 7/8/2 6/5/2
f 5/6/3 6/5/3 2/1/3
f 6/5/4 7/8/4 3/7/4
f 7/8/5 8/4/5 4/2/5
f 1/3/6 4/2/6 8/4/6
f 10/9/5 12/84/5 11/10/5
f 12/12/6 16/85/6 15/13/6
f 16/15/3 14/86/3 13/16/3
f 14/18/4 10/87/4 9/19/4
f 15/21/1 13/88/1 9/19/1
f 12/12/2 10/87/2 14/22/2
f 18/24/5 20/89/5 19/25/5
f 20/27/6 24/90/6 23/28/6
f 24/30/3 22/91/3 21/31/3
f 22/33/4 18/92/4 17/34/4
f 23/36/1 21/93/1 17/34/1
f 20/27/2 18/92/2 22/37/2
f 26/39/5 28/94/5 27/40/5
f 28/42/6 32/95/6 31/43/6
f 32/45/3 30/96/3 29/46/3
f 30/48/4 26/97/4 25/49/4
f 31/51/1 29/98/1 25/49/1
f 28/42/2 26/97/2 30/52/2
f 34/54/5 36/99/5 35/55/5
f 36/57/6 40/100/6 39/58/6
f 40/60/3 38/101/3 37/61/3
f 38/63/4 34/102/4 33/64/4
f 39/66/1 37/103/1 33/64/1
f 36/57/2 34/102/2 38/67/2
f 42/69/5 44/104/5 43/70/5
f 44/72/6 48/105/6 47/73/6
f 48/75/3 46/106/3 45/76/3
f 46/78/4 42/107/4 41/79/4
f 47/81/1 45/108/1 41/79/1
f 44/72/2 42/107/2 46/82/2
