# Blender v2.79 (sub 0) OBJ File: ''
# www.blender.org
o Cube
v 2.209069 0.651745 -1.000000
v 2.209069 0.651745 1.000000
v -2.209069 0.651745 1.000000
v -2.209068 0.651745 -1.000000
v 2.209070 2.651745 -1.000000
v 2.209067 2.651745 1.000001
v -2.209069 2.651745 1.000000
v -2.209069 2.651745 -1.000000
v 0.272869 2.031669 1.344996
v 0.272869 4.728433 1.344996
v 0.272869 2.031669 -1.351767
v 0.272869 4.728433 -1.351767
v 2.969632 2.031669 1.344996
v 2.969632 4.728433 1.344996
v 2.969632 2.031669 -1.351767
v 2.969632 4.728433 -1.351767
v 1.552718 0.021901 1.180924
v 1.552718 1.333475 1.180924
v 1.552718 0.021901 0.340931
v 1.552718 1.333475 0.340931
v 2.392711 0.021901 1.180924
v 2.392711 1.333475 1.180924
v 2.392711 0.021901 0.340931
v 2.392711 1.333475 0.340931
v 1.552718 0.021901 -0.415029
v 1.552718 1.333475 -0.415029
v 1.552718 0.021901 -1.255022
v 1.552718 1.333475 -1.255022
v 2.392711 0.021901 -0.415029
v 2.392711 1.333475 -0.415029
v 2.392711 0.021901 -1.255022
v 2.392711 1.333475 -1.255022
v -2.491219 0.021901 -0.415029
v -2.491219 1.333475 -0.415029
v -2.491219 0.021901 -1.255022
v -2.491219 1.333475 -1.255022
v -1.651226 0.021901 -0.415029
v -1.651226 1.333475 -0.415029
v -1.651226 0.021901 -1.255022
v -1.651226 1.333475 -1.255022
v -2.491219 0.021901 1.294986
v -2.491219 1.333475 1.294986
v -2.491219 0.021901 0.454992
v -2.491219 1.333475 0.454992
v -1.651226 0.021901 1.294986
v -1.651226 1.333475 1.294986
v -1.651226 0.021901 0.454992
v -1.651226 1.333475 0.454992
vn 0.0000 -1.0000 0.0000
vn 0.0000 1.0000 0.0000
vn 1.0000 -0.0000 0.0000
vn 0.0000 -0.0000 1.0000
vn -1.0000 -0.0000 -0.0000
vn 0.0000 0.0000 -1.0000
s off
f 2//1 4//1 1//1
f 8//2 6//2 5//2
f 5//3 2//3 1//3
f 6//4 3//4 2//4
f 7//5 4//5 3//5
f 1//6 8//6 5//6
f 10//5 11//5 9//5
f 12//6 15//6 11//6
f 16//3 13//3 15//3
f 14//4 9//4 13//4
f 15//1 9//1 11//1
f 12//2 14//2 16//2
f 18//5 19//5 17//5
f 20//6 23//6 19//6
f 24//3 21//3 23//3
f 22//4 17//4 21//4
f 23//1 17//1 19//1
f 20//2 22//2 24//2
f 26//5 27//5 25//5
f 28//6 31//6 27//6
f 32//3 29//3 31//3
f 30//4 25//4 29//4
f 31//1 25//1 27//1
f 28//2 30//2 32//2
f 34//5 35//5 33//5
f 36//6 39//6 35//6
f 40//3 37//3 39//3
f 38//4 33//4 37//4
f 39//1 33//1 35//1
f 36//2 38//2 40//2
f 42//5 43//5 41//5
f 44//6 47//6 43//6
f 48//3 45//3 47//3
f 46//4 41//4 45//4
f 47//1 41//1 43//1
f 44//2 46//2 48//2
f 2//1 3//1 4//1
f 8//2 7//2 6//2
f 5//3 6//3 2//3
f 6//4 7//4 3//4
f 7//5 8//5 4//5
f 1//6 4//6 8//6
f 10//5 12//5 11//5
f 12//6 16//6 15//6
f 16//3 14//3 13//3
f 14//4 10//4 9//4
f 15//1 13//1 9//1
f 12//2 10//2 14//2
f 18//5 20//5 19//5
f 20//6 24//6 23//6
f 24//3 22//3 21//3
f 22//4 18//4 17//4
f 23//1 21//1 17//1
f 20//2 18//2 22//2
f 26//5 28//5 27//5
f 28//6 32//6 31//6
f 32//3 30//3 29//3
f 30//4 26//4 25//4
f 31//1 29//1 25//1
f 28//2 26//2 30//2
f 34//5 36//5 35//5
f 36//6 40//6 39//6
f 40//3 38//3 37//3
f 38//4 34//4 33//4
f 39//1 37//1 33//1
f 36//2 34//2 38//2
f 42//5 44//5 43//5
f 44//6 48//6 47//6
f 48//3 46//3 45//3
f 46//4 42//4 41//4
f 47//1 45//1 41//1
f 44//2 42//2 46//2
